<mxfile host="Electron" agent="Mozilla/5.0 (Windows NT 10.0; Win64; x64) AppleWebKit/537.36 (KHTML, like Gecko) draw.io/26.2.2 Chrome/134.0.6998.178 Electron/35.1.2 Safari/537.36" version="26.2.2">
  <diagram name="Page-1" id="8rsVSyYmdTST4BSqyUrD">
    <mxGraphModel dx="1740" dy="1043" grid="1" gridSize="10" guides="1" tooltips="1" connect="1" arrows="1" fold="1" page="1" pageScale="1" pageWidth="1654" pageHeight="1169" math="0" shadow="0">
      <root>
        <mxCell id="0" />
        <mxCell id="1" parent="0" />
        <mxCell id="yRrWnbCIpUqcNXaT7i-n-26" style="edgeStyle=orthogonalEdgeStyle;rounded=0;orthogonalLoop=1;jettySize=auto;html=1;exitX=0.5;exitY=1;exitDx=0;exitDy=0;entryX=1;entryY=0.5;entryDx=0;entryDy=0;endArrow=none;startFill=0;" parent="1" source="yRrWnbCIpUqcNXaT7i-n-1" target="yRrWnbCIpUqcNXaT7i-n-14" edge="1">
          <mxGeometry relative="1" as="geometry">
            <Array as="points">
              <mxPoint x="1338" y="340" />
              <mxPoint x="1127" y="340" />
            </Array>
          </mxGeometry>
        </mxCell>
        <mxCell id="yRrWnbCIpUqcNXaT7i-n-1" value="&lt;b&gt;CUSTOMERS&lt;/b&gt;" style="rounded=0;whiteSpace=wrap;html=1;" parent="1" vertex="1">
          <mxGeometry x="1278" y="200" width="120" height="50" as="geometry" />
        </mxCell>
        <mxCell id="yRrWnbCIpUqcNXaT7i-n-2" value="&lt;b&gt;PASSWORD&lt;/b&gt;" style="ellipse;whiteSpace=wrap;html=1;" parent="1" vertex="1">
          <mxGeometry x="1420" y="130" width="100" height="40" as="geometry" />
        </mxCell>
        <mxCell id="yRrWnbCIpUqcNXaT7i-n-3" value="" style="endArrow=none;html=1;rounded=0;exitX=0.871;exitY=0.002;exitDx=0;exitDy=0;entryX=0.047;entryY=0.753;entryDx=0;entryDy=0;entryPerimeter=0;exitPerimeter=0;" parent="1" source="yRrWnbCIpUqcNXaT7i-n-1" edge="1">
          <mxGeometry width="50" height="50" relative="1" as="geometry">
            <mxPoint x="1379.76" y="199.39999999999998" as="sourcePoint" />
            <mxPoint x="1424.7" y="159.12" as="targetPoint" />
          </mxGeometry>
        </mxCell>
        <mxCell id="yRrWnbCIpUqcNXaT7i-n-4" value="" style="endArrow=none;html=1;rounded=0;exitX=0.5;exitY=0;exitDx=0;exitDy=0;entryX=0.314;entryY=0.928;entryDx=0;entryDy=0;entryPerimeter=0;" parent="1" source="yRrWnbCIpUqcNXaT7i-n-1" target="yRrWnbCIpUqcNXaT7i-n-10" edge="1">
          <mxGeometry width="50" height="50" relative="1" as="geometry">
            <mxPoint x="1353" y="200" as="sourcePoint" />
            <mxPoint x="1307.0570834817563" y="169.1933255231674" as="targetPoint" />
          </mxGeometry>
        </mxCell>
        <mxCell id="yRrWnbCIpUqcNXaT7i-n-5" value="" style="endArrow=none;html=1;rounded=0;exitX=1;exitY=0.25;exitDx=0;exitDy=0;entryX=0.029;entryY=0.625;entryDx=0;entryDy=0;entryPerimeter=0;" parent="1" source="yRrWnbCIpUqcNXaT7i-n-1" target="yRrWnbCIpUqcNXaT7i-n-13" edge="1">
          <mxGeometry width="50" height="50" relative="1" as="geometry">
            <mxPoint x="1380.6399999999999" y="278.3499999999999" as="sourcePoint" />
            <mxPoint x="1444.2999999999997" y="174.31999999999994" as="targetPoint" />
          </mxGeometry>
        </mxCell>
        <mxCell id="yRrWnbCIpUqcNXaT7i-n-6" value="&lt;b&gt;EMAIL&lt;/b&gt;" style="ellipse;whiteSpace=wrap;html=1;" parent="1" vertex="1">
          <mxGeometry x="1443" y="240" width="100" height="40" as="geometry" />
        </mxCell>
        <mxCell id="yRrWnbCIpUqcNXaT7i-n-7" value="" style="endArrow=none;html=1;rounded=0;exitX=0.995;exitY=0.591;exitDx=0;exitDy=0;exitPerimeter=0;entryX=0.019;entryY=0.387;entryDx=0;entryDy=0;entryPerimeter=0;" parent="1" source="yRrWnbCIpUqcNXaT7i-n-1" target="yRrWnbCIpUqcNXaT7i-n-6" edge="1">
          <mxGeometry width="50" height="50" relative="1" as="geometry">
            <mxPoint x="1402" y="230" as="sourcePoint" />
            <mxPoint x="1317" y="334" as="targetPoint" />
          </mxGeometry>
        </mxCell>
        <mxCell id="yRrWnbCIpUqcNXaT7i-n-8" value="&lt;b&gt;CONTACT&lt;/b&gt;" style="ellipse;whiteSpace=wrap;html=1;" parent="1" vertex="1">
          <mxGeometry x="1398" y="290" width="100" height="40" as="geometry" />
        </mxCell>
        <mxCell id="yRrWnbCIpUqcNXaT7i-n-9" value="" style="endArrow=none;html=1;rounded=0;entryX=0;entryY=0;entryDx=0;entryDy=0;exitX=0.845;exitY=1.011;exitDx=0;exitDy=0;exitPerimeter=0;" parent="1" source="yRrWnbCIpUqcNXaT7i-n-1" target="yRrWnbCIpUqcNXaT7i-n-8" edge="1">
          <mxGeometry width="50" height="50" relative="1" as="geometry">
            <mxPoint x="1252" y="381" as="sourcePoint" />
            <mxPoint x="1175" y="323" as="targetPoint" />
          </mxGeometry>
        </mxCell>
        <mxCell id="yRrWnbCIpUqcNXaT7i-n-10" value="&lt;b&gt;USERNAME&lt;/b&gt;" style="ellipse;whiteSpace=wrap;html=1;" parent="1" vertex="1">
          <mxGeometry x="1310" y="120" width="100" height="40" as="geometry" />
        </mxCell>
        <mxCell id="yRrWnbCIpUqcNXaT7i-n-11" value="" style="endArrow=none;html=1;rounded=0;exitX=0.075;exitY=-0.003;exitDx=0;exitDy=0;entryX=0.647;entryY=0.988;entryDx=0;entryDy=0;entryPerimeter=0;exitPerimeter=0;" parent="1" source="yRrWnbCIpUqcNXaT7i-n-1" target="yRrWnbCIpUqcNXaT7i-n-12" edge="1">
          <mxGeometry width="50" height="50" relative="1" as="geometry">
            <mxPoint x="1318" y="210" as="sourcePoint" />
            <mxPoint x="1241.9999999999998" y="200.08000000000004" as="targetPoint" />
          </mxGeometry>
        </mxCell>
        <mxCell id="yRrWnbCIpUqcNXaT7i-n-12" value="&lt;b&gt;ID&lt;/b&gt;" style="ellipse;whiteSpace=wrap;html=1;" parent="1" vertex="1">
          <mxGeometry x="1200" y="130" width="100" height="40" as="geometry" />
        </mxCell>
        <mxCell id="yRrWnbCIpUqcNXaT7i-n-13" value="&lt;b&gt;FULL_NAME&lt;/b&gt;" style="ellipse;whiteSpace=wrap;html=1;" parent="1" vertex="1">
          <mxGeometry x="1443" y="185" width="100" height="40" as="geometry" />
        </mxCell>
        <mxCell id="yRrWnbCIpUqcNXaT7i-n-14" value="&lt;b&gt;PLACES&lt;/b&gt;" style="rhombus;whiteSpace=wrap;html=1;" parent="1" vertex="1">
          <mxGeometry x="946" y="300" width="90" height="80" as="geometry" />
        </mxCell>
        <mxCell id="yRrWnbCIpUqcNXaT7i-n-19" value="&lt;b&gt;ORDERS&lt;/b&gt;" style="rounded=0;whiteSpace=wrap;html=1;direction=east;" parent="1" vertex="1">
          <mxGeometry x="744" y="510" width="120" height="50" as="geometry" />
        </mxCell>
        <mxCell id="yRrWnbCIpUqcNXaT7i-n-27" value="&lt;b&gt;ORDER_DATE&lt;/b&gt;" style="ellipse;whiteSpace=wrap;html=1;direction=east;" parent="1" vertex="1">
          <mxGeometry x="894" y="568" width="100" height="40" as="geometry" />
        </mxCell>
        <mxCell id="yRrWnbCIpUqcNXaT7i-n-28" value="&lt;b&gt;STATUS&lt;/b&gt;" style="ellipse;whiteSpace=wrap;html=1;direction=east;" parent="1" vertex="1">
          <mxGeometry x="864" y="620" width="100" height="40" as="geometry" />
        </mxCell>
        <mxCell id="yRrWnbCIpUqcNXaT7i-n-29" value="&lt;b&gt;TOTAL_AMOUNT&lt;/b&gt;" style="ellipse;whiteSpace=wrap;html=1;direction=east;" parent="1" vertex="1">
          <mxGeometry x="894" y="450" width="125" height="40" as="geometry" />
        </mxCell>
        <mxCell id="yRrWnbCIpUqcNXaT7i-n-30" value="&lt;b style=&quot;&quot;&gt;ORDER_ID&lt;/b&gt;" style="ellipse;whiteSpace=wrap;html=1;direction=east;" parent="1" vertex="1">
          <mxGeometry x="854" y="400" width="100" height="40" as="geometry" />
        </mxCell>
        <mxCell id="yRrWnbCIpUqcNXaT7i-n-31" style="edgeStyle=orthogonalEdgeStyle;rounded=0;orthogonalLoop=1;jettySize=auto;html=1;exitX=0;exitY=0.5;exitDx=0;exitDy=0;entryX=0.5;entryY=0;entryDx=0;entryDy=0;endArrow=none;startFill=0;" parent="1" source="yRrWnbCIpUqcNXaT7i-n-14" target="yRrWnbCIpUqcNXaT7i-n-19" edge="1">
          <mxGeometry relative="1" as="geometry">
            <mxPoint x="803.52" y="370" as="sourcePoint" />
            <mxPoint x="803.52" y="470" as="targetPoint" />
          </mxGeometry>
        </mxCell>
        <mxCell id="yRrWnbCIpUqcNXaT7i-n-32" value="" style="endArrow=none;html=1;rounded=0;entryX=0;entryY=0.5;entryDx=0;entryDy=0;exitX=0.75;exitY=0;exitDx=0;exitDy=0;" parent="1" source="yRrWnbCIpUqcNXaT7i-n-19" target="yRrWnbCIpUqcNXaT7i-n-30" edge="1">
          <mxGeometry width="50" height="50" relative="1" as="geometry">
            <mxPoint x="668" y="470" as="sourcePoint" />
            <mxPoint x="718" y="420" as="targetPoint" />
          </mxGeometry>
        </mxCell>
        <mxCell id="yRrWnbCIpUqcNXaT7i-n-33" value="" style="endArrow=none;html=1;rounded=0;entryX=0;entryY=0.5;entryDx=0;entryDy=0;exitX=0.75;exitY=1;exitDx=0;exitDy=0;" parent="1" source="yRrWnbCIpUqcNXaT7i-n-19" target="yRrWnbCIpUqcNXaT7i-n-28" edge="1">
          <mxGeometry width="50" height="50" relative="1" as="geometry">
            <mxPoint x="844" y="520" as="sourcePoint" />
            <mxPoint x="898" y="450" as="targetPoint" />
          </mxGeometry>
        </mxCell>
        <mxCell id="yRrWnbCIpUqcNXaT7i-n-34" value="" style="endArrow=none;html=1;rounded=0;entryX=0;entryY=0.5;entryDx=0;entryDy=0;exitX=1;exitY=1;exitDx=0;exitDy=0;" parent="1" source="yRrWnbCIpUqcNXaT7i-n-19" target="yRrWnbCIpUqcNXaT7i-n-27" edge="1">
          <mxGeometry width="50" height="50" relative="1" as="geometry">
            <mxPoint x="854" y="530" as="sourcePoint" />
            <mxPoint x="908" y="460" as="targetPoint" />
          </mxGeometry>
        </mxCell>
        <mxCell id="yRrWnbCIpUqcNXaT7i-n-36" value="" style="endArrow=none;html=1;rounded=0;entryX=0;entryY=0.5;entryDx=0;entryDy=0;exitX=1;exitY=0;exitDx=0;exitDy=0;" parent="1" source="yRrWnbCIpUqcNXaT7i-n-19" target="yRrWnbCIpUqcNXaT7i-n-29" edge="1">
          <mxGeometry width="50" height="50" relative="1" as="geometry">
            <mxPoint x="874" y="558" as="sourcePoint" />
            <mxPoint x="919" y="570" as="targetPoint" />
          </mxGeometry>
        </mxCell>
        <mxCell id="yRrWnbCIpUqcNXaT7i-n-38" value="&lt;b&gt;SUPPLIERS&lt;/b&gt;" style="rounded=0;whiteSpace=wrap;html=1;direction=east;" parent="1" vertex="1">
          <mxGeometry x="410" y="835" width="120" height="50" as="geometry" />
        </mxCell>
        <mxCell id="yRrWnbCIpUqcNXaT7i-n-39" value="&lt;b&gt;SUPPLIER_NAME&lt;/b&gt;" style="ellipse;whiteSpace=wrap;html=1;direction=east;" parent="1" vertex="1">
          <mxGeometry x="240" y="890" width="123" height="40" as="geometry" />
        </mxCell>
        <mxCell id="yRrWnbCIpUqcNXaT7i-n-40" value="" style="endArrow=none;html=1;rounded=0;exitX=0;exitY=1;exitDx=0;exitDy=0;entryX=0.975;entryY=0.354;entryDx=0;entryDy=0;entryPerimeter=0;" parent="1" source="yRrWnbCIpUqcNXaT7i-n-38" target="yRrWnbCIpUqcNXaT7i-n-39" edge="1">
          <mxGeometry width="50" height="50" relative="1" as="geometry">
            <mxPoint x="475" y="890" as="sourcePoint" />
            <mxPoint x="364" y="902" as="targetPoint" />
          </mxGeometry>
        </mxCell>
        <mxCell id="yRrWnbCIpUqcNXaT7i-n-41" value="&lt;b&gt;EMAIL&lt;/b&gt;" style="ellipse;whiteSpace=wrap;html=1;direction=east;" parent="1" vertex="1">
          <mxGeometry x="469" y="925" width="100" height="40" as="geometry" />
        </mxCell>
        <mxCell id="yRrWnbCIpUqcNXaT7i-n-42" value="" style="endArrow=none;html=1;rounded=0;entryX=0.5;entryY=0;entryDx=0;entryDy=0;" parent="1" target="yRrWnbCIpUqcNXaT7i-n-41" edge="1">
          <mxGeometry width="50" height="50" relative="1" as="geometry">
            <mxPoint x="514" y="885" as="sourcePoint" />
            <mxPoint x="495.96000000000004" y="870" as="targetPoint" />
          </mxGeometry>
        </mxCell>
        <mxCell id="yRrWnbCIpUqcNXaT7i-n-43" value="&lt;b&gt;CONTACT_&lt;/b&gt;&lt;div&gt;&lt;b&gt;NUMBER&lt;/b&gt;&lt;/div&gt;" style="ellipse;whiteSpace=wrap;html=1;direction=east;" parent="1" vertex="1">
          <mxGeometry x="352" y="925" width="100" height="45" as="geometry" />
        </mxCell>
        <mxCell id="yRrWnbCIpUqcNXaT7i-n-44" value="" style="endArrow=none;html=1;rounded=0;exitX=0.114;exitY=1.007;exitDx=0;exitDy=0;exitPerimeter=0;entryX=0.662;entryY=0.037;entryDx=0;entryDy=0;entryPerimeter=0;" parent="1" source="yRrWnbCIpUqcNXaT7i-n-38" target="yRrWnbCIpUqcNXaT7i-n-43" edge="1">
          <mxGeometry width="50" height="50" relative="1" as="geometry">
            <mxPoint x="517.6399999999999" y="913.3499999999999" as="sourcePoint" />
            <mxPoint x="424" y="925" as="targetPoint" />
          </mxGeometry>
        </mxCell>
        <mxCell id="yRrWnbCIpUqcNXaT7i-n-45" value="&lt;b style=&quot;&quot;&gt;ID&lt;/b&gt;" style="ellipse;whiteSpace=wrap;html=1;direction=east;" parent="1" vertex="1">
          <mxGeometry x="261" y="836" width="100" height="40" as="geometry" />
        </mxCell>
        <mxCell id="yRrWnbCIpUqcNXaT7i-n-46" value="" style="endArrow=none;html=1;rounded=0;exitX=-0.005;exitY=0.416;exitDx=0;exitDy=0;entryX=1;entryY=0.5;entryDx=0;entryDy=0;exitPerimeter=0;" parent="1" source="yRrWnbCIpUqcNXaT7i-n-38" target="yRrWnbCIpUqcNXaT7i-n-45" edge="1">
          <mxGeometry width="50" height="50" relative="1" as="geometry">
            <mxPoint x="402.5" y="905" as="sourcePoint" />
            <mxPoint x="290.5" y="874" as="targetPoint" />
          </mxGeometry>
        </mxCell>
        <mxCell id="yRrWnbCIpUqcNXaT7i-n-47" value="&lt;b&gt;ADDRESS&lt;/b&gt;" style="ellipse;whiteSpace=wrap;html=1;direction=east;" parent="1" vertex="1">
          <mxGeometry x="564" y="885" width="100" height="40" as="geometry" />
        </mxCell>
        <mxCell id="yRrWnbCIpUqcNXaT7i-n-48" value="" style="endArrow=none;html=1;rounded=0;exitX=1;exitY=1;exitDx=0;exitDy=0;entryX=0.02;entryY=0.386;entryDx=0;entryDy=0;entryPerimeter=0;" parent="1" source="yRrWnbCIpUqcNXaT7i-n-38" target="yRrWnbCIpUqcNXaT7i-n-47" edge="1">
          <mxGeometry width="50" height="50" relative="1" as="geometry">
            <mxPoint x="540" y="895" as="sourcePoint" />
            <mxPoint x="569" y="914" as="targetPoint" />
          </mxGeometry>
        </mxCell>
        <mxCell id="yRrWnbCIpUqcNXaT7i-n-49" value="&lt;b&gt;PRODUCTS&lt;/b&gt;" style="rounded=0;whiteSpace=wrap;html=1;direction=east;" parent="1" vertex="1">
          <mxGeometry x="1266" y="842" width="120" height="50" as="geometry" />
        </mxCell>
        <mxCell id="yRrWnbCIpUqcNXaT7i-n-50" value="&lt;b&gt;PRODUCT_NAME&lt;/b&gt;" style="ellipse;whiteSpace=wrap;html=1;direction=east;" parent="1" vertex="1">
          <mxGeometry x="1180" y="935" width="120" height="40" as="geometry" />
        </mxCell>
        <mxCell id="yRrWnbCIpUqcNXaT7i-n-52" value="&lt;b style=&quot;&quot;&gt;ID&lt;/b&gt;" style="ellipse;whiteSpace=wrap;html=1;direction=east;" parent="1" vertex="1">
          <mxGeometry x="1137" y="890" width="100" height="40" as="geometry" />
        </mxCell>
        <mxCell id="yRrWnbCIpUqcNXaT7i-n-56" value="&lt;b&gt;STOCK_QUANTITY&lt;/b&gt;" style="ellipse;whiteSpace=wrap;html=1;direction=east;" parent="1" vertex="1">
          <mxGeometry x="1430" y="915" width="130" height="40" as="geometry" />
        </mxCell>
        <mxCell id="yRrWnbCIpUqcNXaT7i-n-58" value="&lt;b&gt;CATEGORY&lt;/b&gt;" style="ellipse;whiteSpace=wrap;html=1;direction=east;" parent="1" vertex="1">
          <mxGeometry x="1443" y="862" width="100" height="40" as="geometry" />
        </mxCell>
        <mxCell id="yRrWnbCIpUqcNXaT7i-n-60" value="&lt;b&gt;PRICE&lt;/b&gt;" style="ellipse;whiteSpace=wrap;html=1;direction=east;" parent="1" vertex="1">
          <mxGeometry x="1310" y="935" width="100" height="40" as="geometry" />
        </mxCell>
        <mxCell id="yRrWnbCIpUqcNXaT7i-n-63" value="&lt;b&gt;PRODUCT_IMAGE&lt;/b&gt;" style="ellipse;whiteSpace=wrap;html=1;direction=east;" parent="1" vertex="1">
          <mxGeometry x="1432" y="810" width="128" height="40" as="geometry" />
        </mxCell>
        <mxCell id="yRrWnbCIpUqcNXaT7i-n-64" value="&lt;b&gt;PROVIDES&lt;/b&gt;" style="rhombus;whiteSpace=wrap;html=1;" parent="1" vertex="1">
          <mxGeometry x="804" y="822" width="90" height="80" as="geometry" />
        </mxCell>
        <mxCell id="yRrWnbCIpUqcNXaT7i-n-65" value="" style="endArrow=none;html=1;rounded=0;exitX=1;exitY=0.5;exitDx=0;exitDy=0;entryX=0;entryY=0.5;entryDx=0;entryDy=0;" parent="1" source="yRrWnbCIpUqcNXaT7i-n-38" target="yRrWnbCIpUqcNXaT7i-n-64" edge="1">
          <mxGeometry width="50" height="50" relative="1" as="geometry">
            <mxPoint x="784" y="855" as="sourcePoint" />
            <mxPoint x="834" y="805" as="targetPoint" />
          </mxGeometry>
        </mxCell>
        <mxCell id="yRrWnbCIpUqcNXaT7i-n-66" value="" style="endArrow=none;html=1;rounded=0;exitX=1;exitY=0.5;exitDx=0;exitDy=0;entryX=0;entryY=0.387;entryDx=0;entryDy=0;entryPerimeter=0;" parent="1" source="yRrWnbCIpUqcNXaT7i-n-64" target="yRrWnbCIpUqcNXaT7i-n-49" edge="1">
          <mxGeometry width="50" height="50" relative="1" as="geometry">
            <mxPoint x="1030" y="861" as="sourcePoint" />
            <mxPoint x="1304" y="863" as="targetPoint" />
          </mxGeometry>
        </mxCell>
        <mxCell id="yRrWnbCIpUqcNXaT7i-n-67" value="" style="endArrow=none;html=1;rounded=0;exitX=1;exitY=0;exitDx=0;exitDy=0;entryX=0;entryY=0.75;entryDx=0;entryDy=0;" parent="1" source="yRrWnbCIpUqcNXaT7i-n-52" target="yRrWnbCIpUqcNXaT7i-n-49" edge="1">
          <mxGeometry width="50" height="50" relative="1" as="geometry">
            <mxPoint x="1110" y="785" as="sourcePoint" />
            <mxPoint x="1160" y="735" as="targetPoint" />
          </mxGeometry>
        </mxCell>
        <mxCell id="yRrWnbCIpUqcNXaT7i-n-68" value="" style="endArrow=none;html=1;rounded=0;exitX=0.686;exitY=0.012;exitDx=0;exitDy=0;entryX=0.151;entryY=0.987;entryDx=0;entryDy=0;exitPerimeter=0;entryPerimeter=0;" parent="1" source="yRrWnbCIpUqcNXaT7i-n-50" target="yRrWnbCIpUqcNXaT7i-n-49" edge="1">
          <mxGeometry width="50" height="50" relative="1" as="geometry">
            <mxPoint x="1232" y="908" as="sourcePoint" />
            <mxPoint x="1276" y="890" as="targetPoint" />
          </mxGeometry>
        </mxCell>
        <mxCell id="yRrWnbCIpUqcNXaT7i-n-69" value="" style="endArrow=none;html=1;rounded=0;entryX=0.5;entryY=0;entryDx=0;entryDy=0;exitX=0.75;exitY=1;exitDx=0;exitDy=0;" parent="1" source="yRrWnbCIpUqcNXaT7i-n-49" target="yRrWnbCIpUqcNXaT7i-n-60" edge="1">
          <mxGeometry width="50" height="50" relative="1" as="geometry">
            <mxPoint x="1350" y="895" as="sourcePoint" />
            <mxPoint x="1286" y="900" as="targetPoint" />
          </mxGeometry>
        </mxCell>
        <mxCell id="yRrWnbCIpUqcNXaT7i-n-70" value="" style="endArrow=none;html=1;rounded=0;exitX=1;exitY=0.75;exitDx=0;exitDy=0;entryX=0;entryY=0.5;entryDx=0;entryDy=0;" parent="1" source="yRrWnbCIpUqcNXaT7i-n-49" target="yRrWnbCIpUqcNXaT7i-n-58" edge="1">
          <mxGeometry width="50" height="50" relative="1" as="geometry">
            <mxPoint x="1252" y="928" as="sourcePoint" />
            <mxPoint x="1296" y="910" as="targetPoint" />
          </mxGeometry>
        </mxCell>
        <mxCell id="yRrWnbCIpUqcNXaT7i-n-71" value="" style="endArrow=none;html=1;rounded=0;exitX=0.926;exitY=1.006;exitDx=0;exitDy=0;entryX=0.03;entryY=0.358;entryDx=0;entryDy=0;entryPerimeter=0;exitPerimeter=0;" parent="1" source="yRrWnbCIpUqcNXaT7i-n-49" target="yRrWnbCIpUqcNXaT7i-n-56" edge="1">
          <mxGeometry width="50" height="50" relative="1" as="geometry">
            <mxPoint x="1262" y="938" as="sourcePoint" />
            <mxPoint x="1306" y="920" as="targetPoint" />
          </mxGeometry>
        </mxCell>
        <mxCell id="yRrWnbCIpUqcNXaT7i-n-72" value="" style="endArrow=none;html=1;rounded=0;exitX=0.999;exitY=0.327;exitDx=0;exitDy=0;entryX=0.038;entryY=0.667;entryDx=0;entryDy=0;entryPerimeter=0;exitPerimeter=0;" parent="1" source="yRrWnbCIpUqcNXaT7i-n-49" target="yRrWnbCIpUqcNXaT7i-n-63" edge="1">
          <mxGeometry width="50" height="50" relative="1" as="geometry">
            <mxPoint x="1396" y="890" as="sourcePoint" />
            <mxPoint x="1453" y="892" as="targetPoint" />
          </mxGeometry>
        </mxCell>
        <mxCell id="yRrWnbCIpUqcNXaT7i-n-75" value="&lt;b&gt;DELIVERY&lt;/b&gt;" style="rounded=0;whiteSpace=wrap;html=1;direction=east;" parent="1" vertex="1">
          <mxGeometry x="262.9999999999999" y="600" width="120" height="50" as="geometry" />
        </mxCell>
        <mxCell id="yRrWnbCIpUqcNXaT7i-n-76" value="&lt;b&gt;SHIPPING_DATE&lt;/b&gt;" style="ellipse;whiteSpace=wrap;html=1;direction=east;" parent="1" vertex="1">
          <mxGeometry x="97" y="667" width="114" height="40" as="geometry" />
        </mxCell>
        <mxCell id="yRrWnbCIpUqcNXaT7i-n-78" value="&lt;b&gt;DELIVERY_DATE&lt;/b&gt;" style="ellipse;whiteSpace=wrap;html=1;direction=east;" parent="1" vertex="1">
          <mxGeometry x="97" y="605" width="114" height="40" as="geometry" />
        </mxCell>
        <mxCell id="yRrWnbCIpUqcNXaT7i-n-80" value="&lt;b style=&quot;&quot;&gt;DELIVERY_ID&lt;/b&gt;" style="ellipse;whiteSpace=wrap;html=1;direction=east;" parent="1" vertex="1">
          <mxGeometry x="104" y="545" width="100" height="40" as="geometry" />
        </mxCell>
        <mxCell id="yRrWnbCIpUqcNXaT7i-n-82" value="&lt;b&gt;HAS&lt;/b&gt;" style="rhombus;whiteSpace=wrap;html=1;" parent="1" vertex="1">
          <mxGeometry x="505" y="585" width="90" height="80" as="geometry" />
        </mxCell>
        <mxCell id="yRrWnbCIpUqcNXaT7i-n-83" value="&lt;b&gt;HAS&lt;/b&gt;" style="rhombus;whiteSpace=wrap;html=1;" parent="1" vertex="1">
          <mxGeometry x="469" y="370" width="90" height="80" as="geometry" />
        </mxCell>
        <mxCell id="yRrWnbCIpUqcNXaT7i-n-85" value="" style="endArrow=none;html=1;rounded=0;entryX=1;entryY=0.5;entryDx=0;entryDy=0;" parent="1" target="yRrWnbCIpUqcNXaT7i-n-82" edge="1">
          <mxGeometry width="50" height="50" relative="1" as="geometry">
            <mxPoint x="750" y="559" as="sourcePoint" />
            <mxPoint x="593" y="624.5" as="targetPoint" />
            <Array as="points">
              <mxPoint x="750" y="625" />
            </Array>
          </mxGeometry>
        </mxCell>
        <mxCell id="yRrWnbCIpUqcNXaT7i-n-86" value="&lt;b&gt;PAYMENTS&lt;/b&gt;" style="rounded=0;whiteSpace=wrap;html=1;direction=east;" parent="1" vertex="1">
          <mxGeometry x="260.9999999999999" y="385" width="120" height="50" as="geometry" />
        </mxCell>
        <mxCell id="yRrWnbCIpUqcNXaT7i-n-87" value="&lt;b style=&quot;&quot;&gt;PAYMENT_ID&lt;/b&gt;" style="ellipse;whiteSpace=wrap;html=1;direction=east;" parent="1" vertex="1">
          <mxGeometry x="104" y="336" width="100" height="40" as="geometry" />
        </mxCell>
        <mxCell id="yRrWnbCIpUqcNXaT7i-n-88" value="&lt;b style=&quot;&quot;&gt;AMOUNT&lt;/b&gt;" style="ellipse;whiteSpace=wrap;html=1;direction=east;" parent="1" vertex="1">
          <mxGeometry x="104" y="390" width="100" height="40" as="geometry" />
        </mxCell>
        <mxCell id="yRrWnbCIpUqcNXaT7i-n-89" value="&lt;b style=&quot;&quot;&gt;STATUS&lt;/b&gt;" style="ellipse;whiteSpace=wrap;html=1;direction=east;" parent="1" vertex="1">
          <mxGeometry x="104" y="445" width="100" height="40" as="geometry" />
        </mxCell>
        <mxCell id="yRrWnbCIpUqcNXaT7i-n-93" value="" style="endArrow=none;html=1;rounded=0;entryX=1;entryY=0.5;entryDx=0;entryDy=0;exitX=0;exitY=0.5;exitDx=0;exitDy=0;" parent="1" source="yRrWnbCIpUqcNXaT7i-n-86" target="yRrWnbCIpUqcNXaT7i-n-88" edge="1">
          <mxGeometry width="50" height="50" relative="1" as="geometry">
            <mxPoint x="312" y="395" as="sourcePoint" />
            <mxPoint x="313" y="349" as="targetPoint" />
          </mxGeometry>
        </mxCell>
        <mxCell id="yRrWnbCIpUqcNXaT7i-n-94" value="" style="endArrow=none;html=1;rounded=0;entryX=1;entryY=0.5;entryDx=0;entryDy=0;exitX=0;exitY=1;exitDx=0;exitDy=0;" parent="1" source="yRrWnbCIpUqcNXaT7i-n-86" target="yRrWnbCIpUqcNXaT7i-n-89" edge="1">
          <mxGeometry width="50" height="50" relative="1" as="geometry">
            <mxPoint x="271" y="408" as="sourcePoint" />
            <mxPoint x="214" y="390" as="targetPoint" />
          </mxGeometry>
        </mxCell>
        <mxCell id="yRrWnbCIpUqcNXaT7i-n-95" value="" style="endArrow=none;html=1;rounded=0;entryX=0.974;entryY=0.654;entryDx=0;entryDy=0;exitX=0;exitY=0;exitDx=0;exitDy=0;entryPerimeter=0;" parent="1" source="yRrWnbCIpUqcNXaT7i-n-86" target="yRrWnbCIpUqcNXaT7i-n-87" edge="1">
          <mxGeometry width="50" height="50" relative="1" as="geometry">
            <mxPoint x="281" y="418" as="sourcePoint" />
            <mxPoint x="224" y="400" as="targetPoint" />
          </mxGeometry>
        </mxCell>
        <mxCell id="yRrWnbCIpUqcNXaT7i-n-96" value="" style="endArrow=none;html=1;rounded=0;entryX=1;entryY=0.5;entryDx=0;entryDy=0;exitX=0;exitY=0;exitDx=0;exitDy=0;" parent="1" source="yRrWnbCIpUqcNXaT7i-n-75" target="yRrWnbCIpUqcNXaT7i-n-80" edge="1">
          <mxGeometry width="50" height="50" relative="1" as="geometry">
            <mxPoint x="271" y="408" as="sourcePoint" />
            <mxPoint x="214" y="390" as="targetPoint" />
          </mxGeometry>
        </mxCell>
        <mxCell id="yRrWnbCIpUqcNXaT7i-n-97" value="" style="endArrow=none;html=1;rounded=0;entryX=1;entryY=0.5;entryDx=0;entryDy=0;exitX=0;exitY=1;exitDx=0;exitDy=0;" parent="1" source="yRrWnbCIpUqcNXaT7i-n-75" target="yRrWnbCIpUqcNXaT7i-n-76" edge="1">
          <mxGeometry width="50" height="50" relative="1" as="geometry">
            <mxPoint x="273" y="610" as="sourcePoint" />
            <mxPoint x="214" y="595" as="targetPoint" />
          </mxGeometry>
        </mxCell>
        <mxCell id="yRrWnbCIpUqcNXaT7i-n-98" value="" style="endArrow=none;html=1;rounded=0;entryX=1;entryY=0.5;entryDx=0;entryDy=0;exitX=0;exitY=0.5;exitDx=0;exitDy=0;" parent="1" source="yRrWnbCIpUqcNXaT7i-n-75" target="yRrWnbCIpUqcNXaT7i-n-78" edge="1">
          <mxGeometry width="50" height="50" relative="1" as="geometry">
            <mxPoint x="273" y="660" as="sourcePoint" />
            <mxPoint x="214" y="720" as="targetPoint" />
          </mxGeometry>
        </mxCell>
        <mxCell id="yRrWnbCIpUqcNXaT7i-n-102" value="" style="endArrow=none;html=1;rounded=0;entryX=1;entryY=0.5;entryDx=0;entryDy=0;" parent="1" target="yRrWnbCIpUqcNXaT7i-n-86" edge="1">
          <mxGeometry width="50" height="50" relative="1" as="geometry">
            <mxPoint x="470" y="410" as="sourcePoint" />
            <mxPoint x="383" y="412.5" as="targetPoint" />
          </mxGeometry>
        </mxCell>
        <mxCell id="yRrWnbCIpUqcNXaT7i-n-103" value="" style="endArrow=none;html=1;rounded=0;entryX=1;entryY=0.5;entryDx=0;entryDy=0;exitX=0;exitY=0.5;exitDx=0;exitDy=0;" parent="1" edge="1">
          <mxGeometry width="50" height="50" relative="1" as="geometry">
            <mxPoint x="506" y="625" as="sourcePoint" />
            <mxPoint x="383" y="625.5" as="targetPoint" />
          </mxGeometry>
        </mxCell>
        <mxCell id="hLrYJ35-DMpQQOwt754Z-1" value="&lt;b&gt;ORDER_ITEMS&lt;/b&gt;" style="rounded=0;whiteSpace=wrap;html=1;direction=east;" parent="1" vertex="1">
          <mxGeometry x="1331" y="510" width="120" height="50" as="geometry" />
        </mxCell>
        <mxCell id="hLrYJ35-DMpQQOwt754Z-2" value="&lt;b&gt;QUANTITY&lt;/b&gt;" style="ellipse;whiteSpace=wrap;html=1;direction=east;" parent="1" vertex="1">
          <mxGeometry x="1430.5" y="580" width="125" height="40" as="geometry" />
        </mxCell>
        <mxCell id="hLrYJ35-DMpQQOwt754Z-3" value="&lt;b&gt;ORDER_ITEM_ID&lt;/b&gt;" style="ellipse;whiteSpace=wrap;html=1;direction=east;" parent="1" vertex="1">
          <mxGeometry x="1430" y="450" width="125" height="40" as="geometry" />
        </mxCell>
        <mxCell id="hLrYJ35-DMpQQOwt754Z-4" value="" style="endArrow=none;html=1;rounded=0;exitX=0.75;exitY=0;exitDx=0;exitDy=0;entryX=0.187;entryY=0.882;entryDx=0;entryDy=0;entryPerimeter=0;" parent="1" source="hLrYJ35-DMpQQOwt754Z-1" target="hLrYJ35-DMpQQOwt754Z-3" edge="1">
          <mxGeometry width="50" height="50" relative="1" as="geometry">
            <mxPoint x="1430" y="493" as="sourcePoint" />
            <mxPoint x="1475" y="470" as="targetPoint" />
          </mxGeometry>
        </mxCell>
        <mxCell id="hLrYJ35-DMpQQOwt754Z-5" value="" style="endArrow=none;html=1;rounded=0;exitX=0.75;exitY=1;exitDx=0;exitDy=0;entryX=0;entryY=0;entryDx=0;entryDy=0;" parent="1" source="hLrYJ35-DMpQQOwt754Z-1" target="hLrYJ35-DMpQQOwt754Z-2" edge="1">
          <mxGeometry width="50" height="50" relative="1" as="geometry">
            <mxPoint x="1460" y="520" as="sourcePoint" />
            <mxPoint x="1503" y="479" as="targetPoint" />
          </mxGeometry>
        </mxCell>
        <mxCell id="hLrYJ35-DMpQQOwt754Z-6" value="" style="endArrow=none;html=1;rounded=0;entryX=0;entryY=0.5;entryDx=0;entryDy=0;" parent="1" source="hLrYJ35-DMpQQOwt754Z-13" target="hLrYJ35-DMpQQOwt754Z-1" edge="1">
          <mxGeometry width="50" height="50" relative="1" as="geometry">
            <mxPoint x="1000" y="534.4100000000001" as="sourcePoint" />
            <mxPoint x="1236" y="534.4100000000001" as="targetPoint" />
          </mxGeometry>
        </mxCell>
        <mxCell id="hLrYJ35-DMpQQOwt754Z-7" value="" style="endArrow=none;html=1;rounded=0;exitX=0.158;exitY=0.984;exitDx=0;exitDy=0;entryX=0.687;entryY=0.008;entryDx=0;entryDy=0;entryPerimeter=0;exitPerimeter=0;" parent="1" source="hLrYJ35-DMpQQOwt754Z-1" target="yRrWnbCIpUqcNXaT7i-n-49" edge="1">
          <mxGeometry width="50" height="50" relative="1" as="geometry">
            <mxPoint x="1262" y="690" as="sourcePoint" />
            <mxPoint x="1498" y="690" as="targetPoint" />
          </mxGeometry>
        </mxCell>
        <mxCell id="hLrYJ35-DMpQQOwt754Z-8" value="&lt;b&gt;FEEBACKS&lt;/b&gt;" style="rounded=0;whiteSpace=wrap;html=1;" parent="1" vertex="1">
          <mxGeometry x="614" y="157.25" width="120" height="50" as="geometry" />
        </mxCell>
        <mxCell id="hLrYJ35-DMpQQOwt754Z-14" value="" style="endArrow=none;html=1;rounded=0;entryX=0;entryY=0.5;entryDx=0;entryDy=0;" parent="1" source="yRrWnbCIpUqcNXaT7i-n-19" target="hLrYJ35-DMpQQOwt754Z-13" edge="1">
          <mxGeometry width="50" height="50" relative="1" as="geometry">
            <mxPoint x="864" y="535" as="sourcePoint" />
            <mxPoint x="1331" y="535" as="targetPoint" />
          </mxGeometry>
        </mxCell>
        <mxCell id="hLrYJ35-DMpQQOwt754Z-13" value="&lt;b&gt;INCLUDES&lt;/b&gt;" style="rhombus;whiteSpace=wrap;html=1;" parent="1" vertex="1">
          <mxGeometry x="1060" y="495" width="90" height="80" as="geometry" />
        </mxCell>
        <mxCell id="hLrYJ35-DMpQQOwt754Z-15" value="&lt;b&gt;INCLUDES&lt;/b&gt;" style="rhombus;whiteSpace=wrap;html=1;" parent="1" vertex="1">
          <mxGeometry x="1304" y="658" width="90" height="80" as="geometry" />
        </mxCell>
        <mxCell id="hLrYJ35-DMpQQOwt754Z-17" value="&lt;b&gt;CREATED_AT&lt;/b&gt;" style="ellipse;whiteSpace=wrap;html=1;direction=east;" parent="1" vertex="1">
          <mxGeometry x="1425" y="758" width="128" height="40" as="geometry" />
        </mxCell>
        <mxCell id="hLrYJ35-DMpQQOwt754Z-18" value="" style="endArrow=none;html=1;rounded=0;entryX=0.021;entryY=0.654;entryDx=0;entryDy=0;entryPerimeter=0;exitX=0.92;exitY=0.024;exitDx=0;exitDy=0;exitPerimeter=0;" parent="1" target="hLrYJ35-DMpQQOwt754Z-17" edge="1">
          <mxGeometry width="50" height="50" relative="1" as="geometry">
            <mxPoint x="1376.4" y="842.2" as="sourcePoint" />
            <mxPoint x="1437.16" y="788.7199999999999" as="targetPoint" />
          </mxGeometry>
        </mxCell>
        <mxCell id="nd2iJtIYNK0_v11XiCCl-1" value="&lt;b&gt;1&lt;/b&gt;" style="text;html=1;align=center;verticalAlign=middle;resizable=0;points=[];autosize=1;strokeColor=none;fillColor=none;" parent="1" vertex="1">
          <mxGeometry x="383" y="376" width="30" height="30" as="geometry" />
        </mxCell>
        <mxCell id="nd2iJtIYNK0_v11XiCCl-2" value="&lt;b&gt;1&lt;/b&gt;" style="text;html=1;align=center;verticalAlign=middle;resizable=0;points=[];autosize=1;strokeColor=none;fillColor=none;" parent="1" vertex="1">
          <mxGeometry x="714" y="535" width="30" height="30" as="geometry" />
        </mxCell>
        <mxCell id="nd2iJtIYNK0_v11XiCCl-3" value="&lt;b&gt;1&lt;/b&gt;" style="text;html=1;align=center;verticalAlign=middle;resizable=0;points=[];autosize=1;strokeColor=none;fillColor=none;" parent="1" vertex="1">
          <mxGeometry x="1311" y="250" width="30" height="30" as="geometry" />
        </mxCell>
        <mxCell id="nd2iJtIYNK0_v11XiCCl-4" value="&lt;b&gt;M&lt;/b&gt;" style="text;html=1;align=center;verticalAlign=middle;resizable=0;points=[];autosize=1;strokeColor=none;fillColor=none;" parent="1" vertex="1">
          <mxGeometry x="774" y="480" width="30" height="30" as="geometry" />
        </mxCell>
        <mxCell id="nd2iJtIYNK0_v11XiCCl-6" value="&lt;b&gt;0..*&lt;/b&gt;" style="text;html=1;align=center;verticalAlign=middle;resizable=0;points=[];autosize=1;strokeColor=none;fillColor=none;" parent="1" vertex="1">
          <mxGeometry x="672" y="206.25" width="40" height="30" as="geometry" />
        </mxCell>
        <mxCell id="nd2iJtIYNK0_v11XiCCl-7" value="&lt;b&gt;1&lt;/b&gt;" style="text;html=1;align=center;verticalAlign=middle;resizable=0;points=[];autosize=1;strokeColor=none;fillColor=none;" parent="1" vertex="1">
          <mxGeometry x="864" y="506" width="30" height="30" as="geometry" />
        </mxCell>
        <mxCell id="nd2iJtIYNK0_v11XiCCl-8" value="&lt;b&gt;M&lt;/b&gt;" style="text;html=1;align=center;verticalAlign=middle;resizable=0;points=[];autosize=1;strokeColor=none;fillColor=none;" parent="1" vertex="1">
          <mxGeometry x="1300" y="506" width="30" height="30" as="geometry" />
        </mxCell>
        <mxCell id="nd2iJtIYNK0_v11XiCCl-9" value="&lt;b&gt;1&lt;/b&gt;" style="text;html=1;align=center;verticalAlign=middle;resizable=0;points=[];autosize=1;strokeColor=none;fillColor=none;" parent="1" vertex="1">
          <mxGeometry x="1323" y="813" width="30" height="30" as="geometry" />
        </mxCell>
        <mxCell id="nd2iJtIYNK0_v11XiCCl-10" value="&lt;b&gt;M&lt;/b&gt;" style="text;html=1;align=center;verticalAlign=middle;resizable=0;points=[];autosize=1;strokeColor=none;fillColor=none;" parent="1" vertex="1">
          <mxGeometry x="1348" y="560" width="30" height="30" as="geometry" />
        </mxCell>
        <mxCell id="nd2iJtIYNK0_v11XiCCl-11" value="&lt;b&gt;1&lt;/b&gt;" style="text;html=1;align=center;verticalAlign=middle;resizable=0;points=[];autosize=1;strokeColor=none;fillColor=none;" parent="1" vertex="1">
          <mxGeometry x="383" y="597" width="30" height="30" as="geometry" />
        </mxCell>
        <mxCell id="nd2iJtIYNK0_v11XiCCl-12" value="&lt;b&gt;1&lt;/b&gt;" style="text;html=1;align=center;verticalAlign=middle;resizable=0;points=[];autosize=1;strokeColor=none;fillColor=none;" parent="1" vertex="1">
          <mxGeometry x="745" y="559" width="30" height="30" as="geometry" />
        </mxCell>
        <mxCell id="nd2iJtIYNK0_v11XiCCl-14" value="&lt;b&gt;M&lt;/b&gt;" style="text;html=1;align=center;verticalAlign=middle;resizable=0;points=[];autosize=1;strokeColor=none;fillColor=none;" parent="1" vertex="1">
          <mxGeometry x="530" y="832" width="30" height="30" as="geometry" />
        </mxCell>
        <mxCell id="nd2iJtIYNK0_v11XiCCl-15" value="&lt;b&gt;M&lt;/b&gt;" style="text;html=1;align=center;verticalAlign=middle;resizable=0;points=[];autosize=1;strokeColor=none;fillColor=none;" parent="1" vertex="1">
          <mxGeometry x="1236" y="832" width="30" height="30" as="geometry" />
        </mxCell>
        <mxCell id="UwFol_oRa2fs969mQ3Ql-3" value="" style="endArrow=none;html=1;rounded=0;" parent="1" edge="1">
          <mxGeometry width="50" height="50" relative="1" as="geometry">
            <mxPoint x="879" y="430" as="sourcePoint" />
            <mxPoint x="929" y="430" as="targetPoint" />
          </mxGeometry>
        </mxCell>
        <mxCell id="UwFol_oRa2fs969mQ3Ql-4" value="" style="endArrow=none;html=1;rounded=0;" parent="1" edge="1">
          <mxGeometry width="50" height="50" relative="1" as="geometry">
            <mxPoint x="1461" y="481" as="sourcePoint" />
            <mxPoint x="1522" y="481" as="targetPoint" />
          </mxGeometry>
        </mxCell>
        <mxCell id="UwFol_oRa2fs969mQ3Ql-5" value="" style="endArrow=none;html=1;rounded=0;" parent="1" edge="1">
          <mxGeometry width="50" height="50" relative="1" as="geometry">
            <mxPoint x="1220" y="159" as="sourcePoint" />
            <mxPoint x="1281" y="159" as="targetPoint" />
          </mxGeometry>
        </mxCell>
        <mxCell id="UwFol_oRa2fs969mQ3Ql-6" value="" style="endArrow=none;html=1;rounded=0;" parent="1" edge="1">
          <mxGeometry width="50" height="50" relative="1" as="geometry">
            <mxPoint x="1157.5" y="918.95" as="sourcePoint" />
            <mxPoint x="1218.5" y="918.95" as="targetPoint" />
          </mxGeometry>
        </mxCell>
        <mxCell id="UwFol_oRa2fs969mQ3Ql-7" value="" style="endArrow=none;html=1;rounded=0;" parent="1" edge="1">
          <mxGeometry width="50" height="50" relative="1" as="geometry">
            <mxPoint x="281.5" y="865.44" as="sourcePoint" />
            <mxPoint x="342.5" y="865.44" as="targetPoint" />
          </mxGeometry>
        </mxCell>
        <mxCell id="UwFol_oRa2fs969mQ3Ql-8" value="" style="endArrow=none;html=1;rounded=0;" parent="1" edge="1">
          <mxGeometry width="50" height="50" relative="1" as="geometry">
            <mxPoint x="122" y="575.69" as="sourcePoint" />
            <mxPoint x="183" y="575.69" as="targetPoint" />
          </mxGeometry>
        </mxCell>
        <mxCell id="UwFol_oRa2fs969mQ3Ql-9" value="" style="endArrow=none;html=1;rounded=0;" parent="1" edge="1">
          <mxGeometry width="50" height="50" relative="1" as="geometry">
            <mxPoint x="123.5" y="366.69000000000005" as="sourcePoint" />
            <mxPoint x="184.5" y="366.69000000000005" as="targetPoint" />
          </mxGeometry>
        </mxCell>
        <mxCell id="2F7A2HCjHFKxHpHRjazg-1" value="&lt;b style=&quot;&quot;&gt;FEEDBACK_ID&lt;/b&gt;" style="ellipse;whiteSpace=wrap;html=1;direction=east;" vertex="1" parent="1">
          <mxGeometry x="480" y="92.75" width="100" height="40" as="geometry" />
        </mxCell>
        <mxCell id="2F7A2HCjHFKxHpHRjazg-2" value="&lt;b style=&quot;&quot;&gt;FEEDBACK_TEXT&lt;/b&gt;" style="ellipse;whiteSpace=wrap;html=1;direction=east;" vertex="1" parent="1">
          <mxGeometry x="610" y="92.75" width="120" height="40" as="geometry" />
        </mxCell>
        <mxCell id="2F7A2HCjHFKxHpHRjazg-3" value="&lt;b style=&quot;&quot;&gt;DATE&lt;/b&gt;" style="ellipse;whiteSpace=wrap;html=1;direction=east;" vertex="1" parent="1">
          <mxGeometry x="480" y="157.25" width="100" height="40" as="geometry" />
        </mxCell>
        <mxCell id="2F7A2HCjHFKxHpHRjazg-4" value="" style="endArrow=none;html=1;rounded=0;" edge="1" parent="1">
          <mxGeometry width="50" height="50" relative="1" as="geometry">
            <mxPoint x="499.5" y="123.44000000000005" as="sourcePoint" />
            <mxPoint x="560.5" y="123.44000000000005" as="targetPoint" />
          </mxGeometry>
        </mxCell>
        <mxCell id="2F7A2HCjHFKxHpHRjazg-6" value="" style="endArrow=none;html=1;rounded=0;entryX=1;entryY=1;entryDx=0;entryDy=0;exitX=0;exitY=0;exitDx=0;exitDy=0;" edge="1" parent="1" source="hLrYJ35-DMpQQOwt754Z-8" target="2F7A2HCjHFKxHpHRjazg-1">
          <mxGeometry width="50" height="50" relative="1" as="geometry">
            <mxPoint x="615" y="152.25" as="sourcePoint" />
            <mxPoint x="555" y="129.25" as="targetPoint" />
          </mxGeometry>
        </mxCell>
        <mxCell id="2F7A2HCjHFKxHpHRjazg-7" value="" style="endArrow=none;html=1;rounded=0;exitX=0.39;exitY=0.024;exitDx=0;exitDy=0;exitPerimeter=0;" edge="1" parent="1">
          <mxGeometry width="50" height="50" relative="1" as="geometry">
            <mxPoint x="660.8" y="157.45" as="sourcePoint" />
            <mxPoint x="661" y="133.25" as="targetPoint" />
          </mxGeometry>
        </mxCell>
        <mxCell id="2F7A2HCjHFKxHpHRjazg-8" value="" style="endArrow=none;html=1;rounded=0;entryX=1;entryY=0.5;entryDx=0;entryDy=0;exitX=0;exitY=0.5;exitDx=0;exitDy=0;" edge="1" parent="1" source="hLrYJ35-DMpQQOwt754Z-8" target="2F7A2HCjHFKxHpHRjazg-3">
          <mxGeometry width="50" height="50" relative="1" as="geometry">
            <mxPoint x="624" y="167.25" as="sourcePoint" />
            <mxPoint x="575" y="137.25" as="targetPoint" />
          </mxGeometry>
        </mxCell>
        <mxCell id="2F7A2HCjHFKxHpHRjazg-9" value="&lt;b&gt;DELIVERY_&lt;/b&gt;&lt;div&gt;&lt;b&gt;ADDRESS&lt;/b&gt;&lt;/div&gt;" style="ellipse;whiteSpace=wrap;html=1;direction=east;" vertex="1" parent="1">
          <mxGeometry x="810" y="670" width="110" height="50" as="geometry" />
        </mxCell>
        <mxCell id="2F7A2HCjHFKxHpHRjazg-11" value="" style="endArrow=none;html=1;rounded=0;entryX=0;entryY=0;entryDx=0;entryDy=0;exitX=0.5;exitY=1;exitDx=0;exitDy=0;" edge="1" parent="1" source="yRrWnbCIpUqcNXaT7i-n-19" target="2F7A2HCjHFKxHpHRjazg-9">
          <mxGeometry width="50" height="50" relative="1" as="geometry">
            <mxPoint x="844" y="570" as="sourcePoint" />
            <mxPoint x="874" y="650" as="targetPoint" />
          </mxGeometry>
        </mxCell>
        <mxCell id="2F7A2HCjHFKxHpHRjazg-12" value="" style="endArrow=none;html=1;rounded=0;entryX=0.5;entryY=1;entryDx=0;entryDy=0;exitX=0;exitY=0.5;exitDx=0;exitDy=0;" edge="1" parent="1" source="yRrWnbCIpUqcNXaT7i-n-19" target="yRrWnbCIpUqcNXaT7i-n-83">
          <mxGeometry width="50" height="50" relative="1" as="geometry">
            <mxPoint x="740" y="540" as="sourcePoint" />
            <mxPoint x="391" y="420" as="targetPoint" />
            <Array as="points">
              <mxPoint x="514" y="535" />
            </Array>
          </mxGeometry>
        </mxCell>
        <mxCell id="2F7A2HCjHFKxHpHRjazg-13" value="&lt;b&gt;INCLUDES&lt;/b&gt;" style="rhombus;whiteSpace=wrap;html=1;" vertex="1" parent="1">
          <mxGeometry x="629" y="296" width="90" height="80" as="geometry" />
        </mxCell>
        <mxCell id="2F7A2HCjHFKxHpHRjazg-14" value="" style="endArrow=none;html=1;rounded=0;entryX=0.5;entryY=0;entryDx=0;entryDy=0;exitX=0.5;exitY=1;exitDx=0;exitDy=0;" edge="1" parent="1" source="hLrYJ35-DMpQQOwt754Z-8" target="2F7A2HCjHFKxHpHRjazg-13">
          <mxGeometry width="50" height="50" relative="1" as="geometry">
            <mxPoint x="480" y="420" as="sourcePoint" />
            <mxPoint x="391" y="420" as="targetPoint" />
          </mxGeometry>
        </mxCell>
        <mxCell id="2F7A2HCjHFKxHpHRjazg-15" value="" style="endArrow=none;html=1;rounded=0;exitX=1;exitY=0.5;exitDx=0;exitDy=0;entryX=0.125;entryY=0.016;entryDx=0;entryDy=0;entryPerimeter=0;" edge="1" parent="1" source="2F7A2HCjHFKxHpHRjazg-13" target="yRrWnbCIpUqcNXaT7i-n-19">
          <mxGeometry width="50" height="50" relative="1" as="geometry">
            <mxPoint x="780" y="440" as="sourcePoint" />
            <mxPoint x="830" y="390" as="targetPoint" />
            <Array as="points">
              <mxPoint x="760" y="336" />
            </Array>
          </mxGeometry>
        </mxCell>
        <mxCell id="2F7A2HCjHFKxHpHRjazg-16" value="&lt;b&gt;1&lt;/b&gt;" style="text;html=1;align=center;verticalAlign=middle;resizable=0;points=[];autosize=1;strokeColor=none;fillColor=none;" vertex="1" parent="1">
          <mxGeometry x="730" y="480" width="30" height="30" as="geometry" />
        </mxCell>
      </root>
    </mxGraphModel>
  </diagram>
</mxfile>
